<svg xmlns="http://www.w3.org/2000/svg" xmlns:xlink="http://www.w3.org/1999/xlink" width="500" zoomAndPan="magnify" viewBox="0 0 375 374.999991" height="500" preserveAspectRatio="xMidYMid meet" version="1.0"><defs><clipPath id="2ee7c210f0"><path d="M 152 16.015625 L 223 16.015625 L 223 213 L 152 213 Z M 152 16.015625 " clip-rule="nonzero"/></clipPath><clipPath id="36aa532139"><path d="M 154 256 L 221 256 L 221 358.765625 L 154 358.765625 Z M 154 256 " clip-rule="nonzero"/></clipPath><clipPath id="f2189d0dd8"><path d="M 179.140625 50.082031 L 194.238281 50.082031 L 194.238281 162.582031 L 179.140625 162.582031 Z M 179.140625 50.082031 " clip-rule="nonzero"/></clipPath><clipPath id="13cc6b8914"><path d="M 0.140625 0.0820312 L 15.238281 0.0820312 L 15.238281 112.582031 L 0.140625 112.582031 Z M 0.140625 0.0820312 " clip-rule="nonzero"/></clipPath><clipPath id="7cb3835c21"><rect x="0" width="16" y="0" height="113"/></clipPath></defs><g clip-path="url(#2ee7c210f0)"><path fill="#000000" d="M 173.125 166.003906 C 179.730469 180.59375 182.621094 195.882812 184.957031 212.15625 C 185.011719 212.542969 185.375 212.851562 185.765625 212.84375 C 186.339844 212.835938 186.921875 212.824219 187.5 212.820312 C 188.074219 212.824219 188.65625 212.835938 189.230469 212.84375 C 189.621094 212.851562 189.984375 212.546875 190.039062 212.15625 C 192.375 195.882812 195.265625 180.59375 201.871094 166.003906 C 206.4375 155.929688 213.761719 145.203125 217.722656 134.214844 C 228.402344 104.640625 218.71875 74.378906 205.316406 47.542969 C 200.085938 37.078125 194.390625 26.734375 188.238281 16.519531 C 188.078125 16.246094 187.765625 16.015625 187.5 16.015625 C 187.234375 16.015625 186.921875 16.246094 186.757812 16.519531 C 180.605469 26.734375 174.910156 37.078125 169.679688 47.542969 C 156.277344 74.375 146.597656 104.636719 157.273438 134.214844 C 161.234375 145.203125 168.558594 155.929688 173.125 166.003906 Z M 173.125 166.003906 " fill-opacity="1" fill-rule="nonzero"/></g><path fill="#000000" d="M 93.761719 230.210938 C 90.921875 228.105469 88.433594 225.664062 86.3125 222.886719 C 75.71875 208.992188 77.414062 191.257812 91.210938 180.429688 C 102.910156 171.25 118.710938 171.808594 131.429688 179.234375 C 145.394531 187.382812 155.53125 199.074219 161.867188 214.289062 C 162.019531 214.652344 162.449219 214.894531 162.835938 214.832031 C 167.152344 214.148438 171.46875 213.640625 175.796875 213.308594 C 176.1875 213.277344 176.460938 212.941406 176.410156 212.550781 C 174.167969 195.535156 168.804688 179.171875 160.328125 163.460938 C 147.628906 139.953125 125.601562 119.246094 98.832031 114.582031 C 39.832031 104.308594 0.046875 174.175781 44.363281 217.367188 C 54.90625 227.648438 68.765625 233.898438 83.441406 233.113281 C 86.851562 232.925781 90.21875 232.382812 93.53125 231.46875 C 94.464844 231.203125 94.542969 230.785156 93.761719 230.210938 Z M 93.761719 230.210938 " fill-opacity="1" fill-rule="nonzero"/><path fill="#000000" d="M 176.640625 257.488281 C 176.695312 257.101562 176.421875 256.808594 176.03125 256.832031 C 171.867188 257.117188 167.71875 257.542969 163.59375 258.113281 C 163.203125 258.167969 162.789062 258.515625 162.65625 258.882812 C 158.460938 270.34375 145.742188 287.769531 131.453125 278.902344 C 124.9375 274.855469 123.210938 265.261719 126.882812 258.84375 C 128.691406 255.691406 131.304688 253.242188 134.730469 251.496094 C 135.707031 250.992188 135.679688 250.5625 134.644531 250.191406 C 131.632812 249.128906 128.300781 248.726562 124.660156 248.988281 C 116.914062 249.539062 110.015625 252.453125 105.363281 258.644531 C 99.046875 267.054688 99.6875 279.914062 105.308594 288.191406 C 112.484375 298.738281 125.328125 304.179688 138.046875 302.253906 C 159.632812 298.984375 173.648438 277.632812 176.640625 257.488281 Z M 176.640625 257.488281 " fill-opacity="1" fill-rule="nonzero"/><path fill="#000000" d="M 170.964844 222.828125 C 163 224.304688 152.148438 229.90625 152.84375 239.457031 C 153.175781 244.042969 155.496094 247.664062 159.738281 250.023438 C 159.921875 250.125 160.121094 250.1875 160.328125 250.128906 C 169.121094 247.773438 178.300781 246.449219 187.5 246.449219 C 196.699219 246.449219 205.878906 247.773438 214.671875 250.128906 C 214.878906 250.1875 215.078125 250.125 215.261719 250.023438 C 219.503906 247.664062 221.828125 244.042969 222.15625 239.457031 C 222.855469 229.90625 212 224.304688 204.035156 222.828125 C 198.539062 221.816406 193.027344 221.308594 187.5 221.273438 C 181.972656 221.308594 176.460938 221.8125 170.964844 222.828125 Z M 170.964844 222.828125 " fill-opacity="1" fill-rule="nonzero"/><path fill="#000000" d="M 276.167969 114.578125 C 249.398438 119.242188 227.371094 139.953125 214.671875 163.460938 C 206.191406 179.171875 200.832031 195.53125 198.589844 212.550781 C 198.539062 212.9375 198.816406 213.277344 199.207031 213.304688 C 203.53125 213.640625 207.847656 214.148438 212.164062 214.832031 C 212.550781 214.890625 212.984375 214.652344 213.132812 214.289062 C 219.46875 199.070312 229.605469 187.378906 243.570312 179.230469 C 256.289062 171.804688 272.089844 171.246094 283.789062 180.429688 C 297.585938 191.257812 299.28125 208.988281 288.6875 222.882812 C 286.566406 225.664062 284.078125 228.105469 281.238281 230.210938 C 280.457031 230.78125 280.535156 231.203125 281.472656 231.464844 C 284.78125 232.378906 288.148438 232.925781 291.558594 233.109375 C 306.234375 233.894531 320.097656 227.644531 330.636719 217.363281 C 374.953125 174.171875 335.167969 104.304688 276.167969 114.578125 Z M 276.167969 114.578125 " fill-opacity="1" fill-rule="nonzero"/><path fill="#000000" d="M 250.339844 248.988281 C 246.703125 248.722656 243.371094 249.128906 240.359375 250.191406 C 239.324219 250.558594 239.292969 250.992188 240.273438 251.496094 C 243.695312 253.238281 246.3125 255.691406 248.121094 258.84375 C 251.792969 265.261719 250.0625 274.855469 243.546875 278.902344 C 229.257812 287.769531 216.542969 270.34375 212.347656 258.882812 C 212.210938 258.515625 211.796875 258.171875 211.410156 258.113281 C 207.28125 257.542969 203.132812 257.117188 198.96875 256.832031 C 198.578125 256.808594 198.304688 257.101562 198.359375 257.488281 C 201.347656 277.632812 215.367188 298.980469 236.953125 302.253906 C 249.671875 304.179688 262.519531 298.738281 269.691406 288.191406 C 275.316406 279.914062 275.953125 267.054688 269.636719 258.644531 C 264.984375 252.453125 258.089844 249.539062 250.339844 248.988281 Z M 250.339844 248.988281 " fill-opacity="1" fill-rule="nonzero"/><g clip-path="url(#36aa532139)"><path fill="#000000" d="M 214.148438 311.570312 C 199.082031 296.046875 191.597656 278.144531 188.011719 257.140625 C 187.945312 256.753906 187.71875 256.441406 187.5 256.441406 C 187.28125 256.441406 187.054688 256.753906 186.988281 257.140625 C 183.402344 278.144531 175.917969 296.046875 160.851562 311.570312 C 158.886719 313.597656 156.867188 315.617188 154.804688 317.628906 C 154.507812 317.917969 154.519531 318.402344 154.832031 318.667969 C 167.773438 329.949219 178.363281 343.121094 186.601562 358.183594 C 186.898438 358.730469 187.320312 358.765625 187.5 358.765625 C 187.679688 358.765625 188.101562 358.730469 188.398438 358.1875 C 196.636719 343.121094 207.226562 329.953125 220.167969 318.671875 C 220.480469 318.402344 220.492188 317.921875 220.195312 317.628906 C 218.132812 315.617188 216.109375 313.597656 214.148438 311.570312 Z M 214.148438 311.570312 " fill-opacity="1" fill-rule="nonzero"/></g><g clip-path="url(#f2189d0dd8)"><g transform="matrix(1, 0, 0, 1, 179, 50)"><g clip-path="url(#7cb3835c21)"><g clip-path="url(#13cc6b8914)"><path fill="#000000" d="M 0.140625 0.0820312 L 15.238281 0.0820312 L 15.238281 112.605469 L 0.140625 112.605469 Z M 0.140625 0.0820312 " fill-opacity="1" fill-rule="nonzero"/></g></g></g></g></svg>